<svg width="32" height="21" viewBox="0 0 32 21" fill="none" xmlns="http://www.w3.org/2000/svg">
<path d="M22.2588 3.76663L20.4123 0.568874C20.0966 0.0222209 19.3075 0.0223032 18.992 0.569038L15.7296 6.22195L13.1727 10.6498L15.7296 15.0776L17.4524 12.0956L18.2864 10.6498L19.702 8.19721L26.9418 20.4218H30.924C31.5634 20.4218 31.9568 19.7223 31.6247 19.1759L22.2588 3.76663Z" fill="#636AE8"/>
<path d="M15.2278 15.9768H10.6875L8.13062 20.4046H12.6709L15.2278 15.9768Z" fill="url(#paint0_linear_40_5)"/>
<path d="M10.6849 15.994L8.1281 20.4218H22.5316C23.1628 20.4218 23.5573 19.7384 23.2417 19.1917L21.3951 15.994L18.3116 10.6498L15.7547 6.22197L14.3364 3.76665L12.4897 0.568645C12.1741 0.0220331 11.3851 0.0220335 11.0694 0.568686L0.317261 19.1918C0.00163937 19.7384 0.396162 20.4218 1.0274 20.4218H4.72079L9.52997 12.0956L11.7796 8.19723L13.1979 10.6498L15.7547 15.0776L16.2814 15.994H15.2252H10.6849Z" fill="#999DF0"/>
<defs>
<linearGradient id="paint0_linear_40_5" x1="22.0616" y1="0.427272" x2="10.5091" y2="20.1934" gradientUnits="userSpaceOnUse">
<stop stop-color="#58CAEF"/>
<stop offset="0.18" stop-color="#4EBEE8"/>
<stop offset="0.5" stop-color="#33A1D6"/>
<stop offset="0.92" stop-color="#0871B9"/>
<stop offset="1" stop-color="#0067B3"/>
</linearGradient>
</defs>
</svg>
