<svg width="17" height="16" viewBox="0 0 17 16" fill="none" xmlns="http://www.w3.org/2000/svg">
<path d="M7.92492 8.58008C6.31524 8.58008 4.88739 8.94374 3.94917 9.26009C3.25662 9.49436 2.79492 10.147 2.79492 10.8783L2.79492 13.1401L7.92492 13.1401" stroke="#171A1F" stroke-width="1.368" stroke-miterlimit="10" stroke-linecap="round"/>
<path d="M7.92983 8.55997C6.35606 8.55997 5.07983 6.71374 5.07983 5.13997V4.56997C5.07983 2.9962 6.35606 1.71997 7.92983 1.71997C9.5036 1.71997 10.7798 2.9962 10.7798 4.56997V5.13997C10.7798 6.71374 9.5036 8.55997 7.92983 8.55997Z" stroke="#171A1F" stroke-width="1.368" stroke-miterlimit="10" stroke-linecap="round"/>
<path d="M9.72144 10.855C9.97452 9.87177 10.8671 9.14502 11.9296 9.14502C12.7732 9.14502 13.5097 9.6033 13.9041 10.2844" stroke="#171A1F" stroke-width="1.368" stroke-miterlimit="10" stroke-linecap="round"/>
<path d="M14.9095 8.94727L14.6644 11.4325L12.2305 10.8967L14.9095 8.94727Z" fill="#171A1F"/>
<path d="M14.1441 12.575C13.891 13.5582 12.9984 14.285 11.9359 14.285C11.0923 14.285 10.3559 13.8267 9.96143 13.1455" stroke="#171A1F" stroke-width="1.368" stroke-miterlimit="10" stroke-linecap="round"/>
<path d="M8.95044 14.4825L9.19554 11.9973L11.6294 12.5331L8.95044 14.4825Z" fill="#171A1F"/>
</svg>
